<?xml version="1.0" encoding="UTF-8"?>
<!DOCTYPE svg PUBLIC "-//W3C//DTD SVG 1.1//EN" "http://www.w3.org/Graphics/SVG/1.1/DTD/svg11.dtd">
<svg xmlns="http://www.w3.org/2000/svg" version="1.1" width="865px" height="992px" style="shape-rendering:geometricPrecision; text-rendering:geometricPrecision; image-rendering:optimizeQuality; fill-rule:evenodd; clip-rule:evenodd" xmlns:xlink="http://www.w3.org/1999/xlink">
<g><path style="opacity:0.994" fill="#008ece" d="M 117.5,130.5 C 328.167,130.333 538.834,130.5 749.5,131C 775.781,136.947 791.614,153.114 797,179.5C 797.667,346.5 797.667,513.5 797,680.5C 792.547,702.287 780.047,717.454 759.5,726C 755.58,727.313 751.58,728.313 747.5,729C 721.169,729.5 694.835,729.667 668.5,729.5C 668.667,751.169 668.5,772.836 668,794.5C 662.694,820.472 647.194,836.639 621.5,843C 455.525,844.657 289.525,844.99 123.5,844C 94.5636,840.063 76.7303,823.896 70,795.5C 69.8438,591.825 69.1771,388.158 68,184.5C 72.9181,155.753 89.4181,137.753 117.5,130.5 Z M 199.5,245.5 C 338.167,245.333 476.834,245.5 615.5,246C 643.771,250.937 660.937,267.437 667,295.5C 667.5,439.833 667.667,584.166 667.5,728.5C 528.166,728.667 388.833,728.5 249.5,728C 222.151,722.908 205.651,706.742 200,679.5C 199.5,534.834 199.333,390.167 199.5,245.5 Z"/></g>
<g><path style="opacity:0.98" fill="#008ece" d="M 721.5,739.5 C 750.467,737.212 768.967,749.878 777,777.5C 780.093,805.159 768.593,823.659 742.5,833C 721.512,837.118 704.345,830.951 691,814.5C 677.329,790.195 680.496,768.361 700.5,749C 707.11,744.69 714.11,741.523 721.5,739.5 Z"/></g>
</svg>
